<svg width="596" height="421" viewBox="0 0 596 421" fill="none" xmlns="http://www.w3.org/2000/svg">
<path d="M470.566 375.672L547.969 375.672M176.858 375.672L75.8839 375.672L34.0313 375.672" stroke="#4793F8" stroke-width="4.9571" stroke-linecap="round" stroke-linejoin="round"/>
<path d="M434.443 375.673L445.742 375.673L381.273 375.673" stroke="#4793F8" stroke-width="4.9571" stroke-linecap="round" stroke-linejoin="round"/>
<path d="M398.884 363.474H236.717" stroke="#2C93EE" stroke-width="6.19637" stroke-linecap="round" stroke-linejoin="round"/>
<path fill-rule="evenodd" clip-rule="evenodd" d="M111.188 268.669C112.903 270.385 116.908 270.385 118.624 268.669C116.908 270.385 116.908 274.388 118.624 276.105C116.908 274.388 112.903 274.388 111.188 276.105C112.903 274.388 112.903 270.385 111.188 268.669Z" fill="#A8CEFF"/>
<path d="M410.011 256.756C410.011 252.961 409.337 249.372 407.728 245.74L421.027 245.74C427.381 245.74 432.85 251.209 432.85 257.563L432.85 257.572L432.85 257.581L433.253 325.715L433.253 325.733L433.253 352.33C433.253 358.685 428.188 363.75 421.834 363.75L354.085 363.75L327.469 363.75C321.115 363.75 316.05 358.685 316.05 352.33L316.05 325.77C316.269 319.362 313.452 314.649 308.801 312.804C304.357 311.04 299.131 312.279 295.205 315.703C290.783 319.434 285.348 320.16 281.053 318.41C276.886 316.712 273.298 312.471 272.904 305.148C273.298 297.823 276.884 293.602 281.071 291.95C285.389 290.247 290.943 291.03 295.605 294.994C299.46 298.358 304.572 299.782 309.029 298.057C313.696 296.25 316.453 291.491 316.453 284.985L316.453 257.563C316.453 251.209 321.518 246.143 327.872 246.143L342.679 246.143C341.562 249.505 340.909 252.989 340.905 256.718C340.474 275.219 355.414 288.825 374.511 289.693L374.581 289.696L374.651 289.696L375.458 289.696L375.458 286.598V289.696H376.264L376.335 289.696L376.405 289.693C395.617 288.82 410.011 274.723 410.011 256.756Z" fill="#CBE3FF" stroke="#2C93EE" stroke-width="6.19637"/>
<path d="M361.88 352.406L411.998 352.406C417.965 352.406 422.738 347.633 422.738 341.666L422.738 321.977M422.439 271.561L422.613 300.888" stroke="#2C93EE" stroke-width="1.23927"/>
<path d="M336.442 351.806C330.609 351.806 325.942 347.139 325.942 341.306L325.942 322.057M326.235 266.187L326.09 290.831" stroke="#2C93EE" stroke-width="1.23927"/>
<path d="M286.335 340.511C290.125 340.511 293.715 339.838 297.351 338.228L297.351 351.527C297.351 357.881 291.883 363.349 285.529 363.349L285.519 363.349L285.51 363.349L217.377 363.753L217.358 363.753L190.761 363.753C184.407 363.753 179.342 358.688 179.342 352.333L179.342 284.585L179.341 257.969C179.341 251.615 184.407 246.55 190.761 246.55L217.321 246.55C223.73 246.768 228.442 243.952 230.287 239.301C232.051 234.856 230.812 229.631 227.389 225.705C223.657 221.283 222.932 215.848 224.682 211.552C226.379 207.386 230.62 203.798 237.943 203.404C245.269 203.798 249.49 207.384 251.141 211.571C252.845 215.889 252.061 221.443 248.097 226.105C244.733 229.96 243.309 235.072 245.035 239.529C246.841 244.196 251.6 246.953 258.106 246.953L285.529 246.953C291.883 246.953 296.948 252.018 296.948 258.372L296.948 273.179C293.586 272.062 290.101 271.409 286.373 271.405C267.872 270.974 254.266 285.914 253.398 305.01L253.395 305.081L253.395 305.151L253.395 305.958L256.493 305.958H253.395V306.764L253.395 306.835L253.398 306.905C254.272 326.117 268.368 340.511 286.335 340.511Z" fill="#F5FAFF" stroke="#2C93EE" stroke-width="6.19637"/>
<path d="M328.01 131.364C324.215 131.364 320.625 132.038 316.994 133.647L316.994 120.348C316.994 113.994 322.462 108.525 328.816 108.525L328.825 108.525L328.835 108.525L396.968 108.122L396.987 108.122L423.584 108.122C429.938 108.122 435.003 113.187 435.003 119.541L435.003 187.29L435.003 213.906C435.003 220.26 429.938 225.325 423.584 225.325L397.023 225.325C390.615 225.106 385.903 227.922 384.057 232.573C382.293 237.018 383.533 242.244 386.956 246.17C390.688 250.592 391.413 256.027 389.663 260.322C387.966 264.489 383.725 268.077 376.402 268.471C369.076 268.077 364.855 264.49 363.203 260.304C361.5 255.986 362.284 250.432 366.247 245.771C369.611 241.915 371.036 236.803 369.31 232.346C367.504 227.679 362.745 224.922 356.238 224.922L328.816 224.922C322.462 224.922 317.397 219.857 317.397 213.502L317.397 198.696C320.758 199.812 324.243 200.465 327.972 200.47C346.473 200.9 360.078 185.961 360.946 166.864L360.95 166.794L360.95 166.723L360.95 165.917L357.851 165.917H360.95V165.11L360.95 165.04L360.946 164.97C360.073 145.757 345.977 131.364 328.01 131.364Z" fill="#F5FAFF" stroke="#2C93EE" stroke-width="6.19637"/>
<path d="M422.851 111.278H395.587C422.603 111.278 430.906 127.699 431.836 158.99V120.573C432.455 113.447 426.879 110.969 422.851 111.278Z" fill="#A3CAFF"/>
<path d="M191.436 360.992L218.7 360.992C191.684 360.992 183.381 344.572 182.451 313.28L182.451 350.768C182.142 358.514 187.409 361.302 191.436 360.992Z" fill="#A3CAFF"/>
<path d="M203.073 214.954C203.034 218.748 203.672 222.345 205.244 225.992L191.945 225.857C185.591 225.792 180.179 220.268 180.244 213.914L180.244 213.905L180.244 213.896L180.536 145.761L180.536 145.743L180.807 119.147C180.872 112.793 185.989 107.78 192.343 107.845L260.088 108.536L286.702 108.808C293.056 108.873 298.069 113.989 298.005 120.343L297.733 146.902C297.449 153.308 300.217 158.049 304.849 159.942C309.276 161.751 314.514 160.565 318.474 157.182C322.934 153.495 328.376 152.825 332.654 154.619C336.803 156.359 340.348 160.636 340.666 167.963C340.198 175.284 336.569 179.468 332.365 181.077C328.031 182.736 322.485 181.896 317.864 177.886C314.043 174.482 308.946 173.006 304.471 174.686C299.786 176.444 296.981 181.175 296.914 187.681L296.634 215.102C296.57 221.456 291.453 226.469 285.099 226.404L270.293 226.253C271.444 222.903 272.133 219.425 272.175 215.696C272.794 197.201 257.995 183.444 238.908 182.381L238.837 182.377L238.767 182.376L237.96 182.368L237.929 185.466L237.96 182.368L237.154 182.36L237.084 182.359L237.013 182.361C217.793 183.039 203.257 196.987 203.073 214.954Z" fill="#CBE3FF" stroke="#2C93EE" stroke-width="6.19637"/>
<path d="M252.269 351.759L203.247 351.759C197.411 351.759 192.742 347.09 192.742 341.254L192.742 321.996M193.034 272.682L192.864 301.368" stroke="#2C93EE" stroke-width="1.23927"/>
<path d="M363.996 123.726L413.018 123.726C418.854 123.726 423.522 128.395 423.522 134.231L423.522 153.489M423.23 202.803L423.4 174.117" stroke="#2C93EE" stroke-width="1.23927"/>
<path d="M287.261 257.2L287.261 265.255" stroke="#2C93EE" stroke-width="1.23927"/>
<path d="M351.901 216.307C351.901 216.307 368.012 215.687 370.181 216.307C372.349 216.926 376.067 220.024 374.518 225.291C372.77 231.236 381.954 229.319 379.165 225.291C376.377 221.264 380.405 216.307 384.122 216.307H402.402" stroke="#2C93EE" stroke-width="1.23927"/>
<path d="M287.275 159.522L287.247 133.976C287.384 128.012 282.722 123.13 276.758 122.992L257.074 122.539M206.664 121.676L235.987 122.178" stroke="#2C93EE" stroke-width="1.23927"/>
<path d="M288.802 217.263L280.484 217.607" stroke="#2C93EE" stroke-width="1.23927" stroke-linecap="round" stroke-linejoin="round"/>
<path d="M194.66 135.529L194.671 185.647" stroke="#2C93EE" stroke-width="1.23927"/>
<path d="M556.85 337.34L481.083 337.34" stroke="#E6F1FE" stroke-width="6.19637" stroke-linecap="round" stroke-linejoin="round"/>
<path d="M571.558 271.761L460.023 271.761" stroke="#E6F1FE" stroke-width="6.19637" stroke-linecap="round" stroke-linejoin="round"/>
<path d="M556.646 169.994H490.184" stroke="#E6F1FE" stroke-width="6.19637" stroke-linecap="round" stroke-linejoin="round"/>
<path d="M539.385 104.916L472.923 104.916" stroke="#E6F1FE" stroke-width="6.19637" stroke-linecap="round" stroke-linejoin="round"/>
<path d="M592.791 134.824H525" stroke="#E6F1FE" stroke-width="6.19637" stroke-linecap="round" stroke-linejoin="round"/>
<path fill-rule="evenodd" clip-rule="evenodd" d="M542.435 63.5662C548.008 69.1421 561.023 69.1421 566.6 63.5662C561.023 69.1421 561.023 82.154 566.6 87.732C561.023 82.154 548.008 82.154 542.435 87.732C548.008 82.154 548.008 69.1421 542.435 63.5662Z" fill="#A8CEFF"/>
<path d="M578 222.456L470.904 222.456" stroke="#E6F1FE" stroke-width="6.19637" stroke-linecap="round" stroke-linejoin="round"/>
<ellipse cx="485.317" cy="138.896" rx="5.31696" ry="5.31251" fill="#A8CEFF"/>
<path d="M143.945 52L50.9997 52" stroke="#E6F1FE" stroke-width="6.19637" stroke-linecap="round" stroke-linejoin="round"/>
<path d="M132.405 178.817H38.999" stroke="#E6F1FE" stroke-width="5.32649" stroke-linecap="round" stroke-linejoin="round"/>
<path d="M205.613 76H160.999" stroke="#E6F1FE" stroke-width="6.19637" stroke-linecap="round" stroke-linejoin="round"/>
<path d="M351.585 80.9124H293.959" stroke="#E6F1FE" stroke-width="6.19637" stroke-linecap="round" stroke-linejoin="round"/>
<path d="M129.761 230.87L3.35477 230.87" stroke="#E6F1FE" stroke-width="6.19637" stroke-linecap="round" stroke-linejoin="round"/>
<path d="M131.636 314.52H27.5367" stroke="#E6F1FE" stroke-width="6.19637" stroke-linecap="round" stroke-linejoin="round"/>
<path fill-rule="evenodd" clip-rule="evenodd" d="M50 128C56.1315 134.129 70.4488 134.129 76.5848 128C70.4488 134.129 70.4488 148.431 76.5848 154.563C70.4488 148.431 56.1315 148.431 50 154.563C56.1315 148.431 56.1315 134.129 50 128Z" fill="#A8CEFF"/>
<ellipse cx="59.9706" cy="335.808" rx="3.3231" ry="3.32032" fill="#A8CEFF"/>
<path d="M523.241 64L434.633 64" stroke="#E6F1FE" stroke-width="6.19637" stroke-linecap="round" stroke-linejoin="round"/>
<path d="M231 4L111 4" stroke="#E6F1FE" stroke-width="6.19637" stroke-linecap="round" stroke-linejoin="round"/>
<path d="M511 4L391 4" stroke="#E6F1FE" stroke-width="6.19637" stroke-linecap="round" stroke-linejoin="round"/>
<path d="M265 30H383.351" stroke="#E6F1FE" stroke-width="6.19637" stroke-linecap="round" stroke-linejoin="round"/>
<path fill-rule="evenodd" clip-rule="evenodd" d="M51.4512 262.467C45.9328 267.983 33.0472 267.983 27.5249 262.467C33.0472 267.983 33.0472 280.855 27.5249 286.373C33.0472 280.855 45.9328 280.855 51.4512 286.373C45.9328 280.855 45.9328 267.983 51.4512 262.467Z" fill="#E6F1FE"/>
<path d="M31 105L141.327 105" stroke="#E6F1FE" stroke-width="6.19637" stroke-linecap="round" stroke-linejoin="round"/>
</svg>
