<svg width="14" height="14" viewBox="0 0 14 14" fill="none" xmlns="http://www.w3.org/2000/svg">
   <path
      d="M2.49079 4.62763L2.20988 5.47037C2.20345 5.48966 2.19128 5.50654 2.17501 5.51874L1.04 6.37C1.01482 6.38889 1 6.41852 1 6.45V7.55C1 7.58148 1.01482 7.61111 1.04 7.63L2.17501 8.48126C2.19128 8.49346 2.20345 8.51034 2.20988 8.52963L2.49079 9.37237C2.49681 9.39042 2.49755 9.4098 2.49294 9.42825L2.21373 10.5451C2.20521 10.5791 2.2152 10.6152 2.24004 10.64L3.35996 11.76C3.3848 11.7848 3.42085 11.7948 3.45493 11.7863L4.57175 11.5071C4.5902 11.5024 4.60958 11.5032 4.62763 11.5092L5.47037 11.7901C5.48966 11.7966 5.50654 11.8087 5.51874 11.825L6.37 12.96C6.38889 12.9852 6.41852 13 6.45 13H7.55C7.58148 13 7.61111 12.9852 7.63 12.96L8.48126 11.825C8.49346 11.8087 8.51034 11.7966 8.52963 11.7901L9.37237 11.5092C9.39042 11.5032 9.4098 11.5024 9.42825 11.5071L10.5451 11.7863C10.5791 11.7948 10.6152 11.7848 10.64 11.76L11.76 10.64C11.7848 10.6152 11.7948 10.5791 11.7863 10.5451L11.5071 9.42825C11.5024 9.4098 11.5032 9.39042 11.5092 9.37237L11.7901 8.52963C11.7966 8.51034 11.8087 8.49346 11.825 8.48126L12.96 7.63C12.9852 7.61111 13 7.58148 13 7.55V6.45C13 6.41852 12.9852 6.38889 12.96 6.37L11.825 5.51874C11.8087 5.50654 11.7966 5.48966 11.7901 5.47037L11.5092 4.62763C11.5032 4.60958 11.5024 4.5902 11.5071 4.57175L11.7863 3.45493C11.7948 3.42085 11.7848 3.3848 11.76 3.35996L10.9293 2.52929C10.9105 2.51054 10.8851 2.5 10.8586 2.5H9.41623C9.40548 2.5 9.3948 2.49827 9.38461 2.49487L8.52963 2.20988C8.51034 2.20345 8.49346 2.19128 8.48126 2.17501L7.63 1.04C7.61111 1.01482 7.58148 1 7.55 1H6.45C6.41852 1 6.38889 1.01482 6.37 1.04L5.51874 2.17501C5.50654 2.19128 5.48966 2.20345 5.47037 2.20988L4.62763 2.49079C4.60958 2.49681 4.5902 2.49755 4.57175 2.49294L3.45493 2.21373C3.42085 2.20521 3.3848 2.2152 3.35996 2.24004L2.24004 3.35996C2.2152 3.3848 2.20521 3.42085 2.21373 3.45493L2.49294 4.57175C2.49755 4.5902 2.49681 4.60958 2.49079 4.62763Z"
      stroke="#007bff" />
   <circle cx="7.00001" cy="6.99999" r="2.4" stroke="#007bff" />
</svg>