<?xml version="1.0"?>
<svg xmlns="http://www.w3.org/2000/svg" xmlns:xlink="http://www.w3.org/1999/xlink" xmlns:svgjs="http://svgjs.com/svgjs" version="1.1" width="512" height="512" x="0" y="0" viewBox="0 0 512 512" style="enable-background:new 0 0 512 512" xml:space="preserve" class=""><g><path xmlns="http://www.w3.org/2000/svg" d="m464 488h-416a24 24 0 0 1 -24-24v-416a24 24 0 0 1 24-24h160a24 24 0 0 1 0 48h-136v368h368v-136a24 24 0 0 1 48 0v160a24 24 0 0 1 -24 24zm16.971-456.971a24 24 0 0 0 -33.942 0l-103.029 103.03v33.941h33.941l103.03-103.029a24 24 0 0 0 0-33.942zm-24.971 176.971a24 24 0 0 0 -24-24h-104v-104a24 24 0 0 0 -48 0v128a24 24 0 0 0 24 24h128a24 24 0 0 0 24-24z" fill="#007bff" data-original="#000000" style="" class=""/></g></svg>
