<svg xmlns="http://www.w3.org/2000/svg" width="32" height="32" viewBox="0 0 32 32"><path d="M24.66,16.9586a6.9353,6.9353,0,0,0,4.2564,6.4263,17.2515,17.2515,0,0,1-2.17,4.5068c-1.3354,1.9195-2.6707,3.8391-4.8406,3.9225-2.0865,0-2.8376-1.2519-5.2579-1.2519s-3.1714,1.2519-5.1744,1.3354c-2.0865.0834-3.6722-2.0865-5.0075-4.006-2.7542-4.006-4.8406-11.1835-2.0865-16.1075a7.8783,7.8783,0,0,1,6.5932-4.006c2.0865,0,4.006,1.4188,5.2579,1.4188s3.5887-1.6692,6.0925-1.4188a7.6872,7.6872,0,0,1,5.842,3.1714,6.7971,6.7971,0,0,0-3.5052,6.009M20.6536,5.191A7.23,7.23,0,0,0,22.3228.1a7.3222,7.3222,0,0,0-4.6737,2.42A6.6922,6.6922,0,0,0,15.98,7.4443,6.017,6.017,0,0,0,20.6536,5.191"/></svg>