<svg width="32" height="32" viewBox="0 0 32 32" fill="none" xmlns="http://www.w3.org/2000/svg">
<path d="M31 16C31 7.71635 24.2836 1 16 1C7.71635 1 1 7.71635 1 16C1 23.4863 6.48446 29.6922 13.6564 30.8186V20.3369H9.84686V16H13.6564V12.6946C13.6564 8.93559 15.8966 6.85783 19.3223 6.85783C20.9634 6.85783 22.6805 7.15103 22.6805 7.15103V10.8425H20.7884C18.9257 10.8425 18.3436 11.9985 18.3436 13.186V16H22.5033L21.8388 20.3369H18.3436V30.8186C25.5155 29.6943 31 23.4884 31 16Z" fill="#1977F3"/>
<path d="M21.8388 20.337L22.5033 16.0001H18.3436V13.1861C18.3436 12.0006 18.9236 10.8426 20.7884 10.8426H22.6805V7.15112C22.6805 7.15112 20.9634 6.85791 19.3223 6.85791C15.8966 6.85791 13.6565 8.93357 13.6565 12.6946V16.0001H9.84686V20.337H13.6565V30.8187C14.4201 30.9389 15.2026 31.0001 16 31.0001C16.7974 31.0001 17.58 30.9368 18.3436 30.8187V20.337H21.8388Z" fill="#FEFEFE"/>
</svg>
