<svg xmlns="http://www.w3.org/2000/svg" width="32" height="32" viewBox="0 0 32 32"><path d="M16.1132.36a16.0268,16.0268,0,0,0-5.0709,31.2256.783.783,0,0,0,1.0676-.8007V27.76c-4.0033.7117-5.0708-.9785-5.4267-1.8682a5.13,5.13,0,0,0-1.6013-2.224c-.5338-.2669-1.3344-1.0675,0-1.0675a3.218,3.218,0,0,1,2.4909,1.6013,3.39,3.39,0,0,0,4.6,1.3489l.0263-.0145h0a3.6631,3.6631,0,0,1,.9786-2.1351c-3.5584-.3558-7.2948-1.7792-7.2948-7.9176a6.2143,6.2143,0,0,1,1.6013-4.27,5.4694,5.4694,0,0,1,.1779-4.27s1.3344-.4448,4.3591,1.6013a15.2792,15.2792,0,0,1,8.0066,0c3.0247-2.0461,4.3591-1.6013,4.3591-1.6013a5.8894,5.8894,0,0,1,.1779,4.27,5.8272,5.8272,0,0,1,1.6013,4.27c0,6.1384-3.7364,7.4728-7.2948,7.9176a3.6811,3.6811,0,0,1,1.0675,2.9357v4.3592c0,.4448.2669.89,1.0676.8006A16.0161,16.0161,0,0,0,31.0587,11.2131,15.6232,15.6232,0,0,0,16.1132.36Z"/></svg>