<svg width="32" height="32" viewBox="0 0 32 32" fill="none" xmlns="http://www.w3.org/2000/svg">
<circle cx="16" cy="16" r="15" fill="#1686B0"/>
<path d="M12.2651 23H9.18241V14.0669H12.2651V23ZM9 11.5056C9 11.0649 9.15809 10.7038 9.47427 10.4223C9.79045 10.1408 10.2009 10 10.7055 10C11.2102 10 11.6206 10.1408 11.9368 10.4223C12.253 10.7038 12.4111 11.0649 12.4111 11.5056C12.4111 11.9462 12.253 12.3073 11.9368 12.5889C11.6206 12.8704 11.2102 13.0111 10.7055 13.0111C10.2009 13.0111 9.79045 12.8704 9.47427 12.5889C9.15809 12.3073 9 11.9462 9 11.5056Z" fill="white"/>
<path d="M16.9896 14.0669L17.0899 15.2328C17.7709 14.3331 18.7103 14.0669 19.9081 14.0669C20.9357 14.0669 21.7018 14.376 22.2065 14.9941C22.7173 15.6122 22.9818 16.5425 23 17.7849V23H19.9173C19.9173 23 19.9173 18.2317 19.9173 17.7298C19.9173 17.228 19.8169 16.8608 19.6163 16.6282C19.4156 16.3895 19.0508 16.2702 18.5218 16.2702C17.9199 16.2702 17.473 16.5089 17.1811 16.9862V23H14.1075V14.0669H16.9896Z" fill="white"/>
</svg>
