<svg width="32" height="32" viewBox="0 0 32 32" fill="none" xmlns="http://www.w3.org/2000/svg">
<path d="M16 31C24.2843 31 31 24.2843 31 16C31 7.71573 24.2843 1 16 1C7.71573 1 1 7.71573 1 16C1 24.2843 7.71573 31 16 31Z" fill="#2DAAE1"/>
<path d="M25.6176 10.0331C24.9101 10.347 24.1502 10.5592 23.3512 10.6546C24.1666 10.1663 24.7913 9.39256 25.0863 8.47162C24.3117 8.9317 23.4639 9.25559 22.5799 9.42923C21.8605 8.66237 20.8346 8.18359 19.6995 8.18359C17.521 8.18359 15.7541 9.94972 15.7541 12.1296C15.7541 12.4384 15.7889 12.7398 15.8558 13.0291C12.5762 12.8643 9.66869 11.2933 7.72252 8.90624C7.38269 9.48923 7.18818 10.1671 7.18818 10.8903C7.18818 12.2591 7.8849 13.4669 8.94355 14.1743C8.31685 14.1549 7.7039 13.9857 7.15594 13.681V13.7308C7.15594 15.6429 8.51591 17.2372 10.3212 17.5998C9.98958 17.6907 9.64155 17.7382 9.2815 17.7382C9.02693 17.7382 8.77995 17.7141 8.53868 17.6687C9.04084 19.2359 10.4981 20.3766 12.2244 20.4089C10.8739 21.4675 9.17219 22.0986 7.32397 22.0986C7.00563 22.0986 6.69102 22.0796 6.38216 22.0424C8.12872 23.1623 10.2025 23.8161 12.431 23.8161C19.6888 23.8161 23.6582 17.8033 23.6582 12.5889C23.6582 12.4177 23.6544 12.2478 23.6461 12.0784C24.4195 11.5191 25.0871 10.8265 25.6176 10.0331Z" fill="white"/>
</svg>
